{"title":"[MARATHI] Kuryat Sada Tinglam - Drama x264 MP3 [TMB]","uid":8670983,"size":634667638,"categoryP":"video","categoryS":"movies","magnet":"?xt=urn:btih:d2d55cbe42bf89de3a284bab17f833a1fdd26779&amp;dn=%5BMARATHI%5D+Kuryat+Sada+Tinglam+-+Drama+x264+MP3+%5BTMB%5D&amp;tr=udp%3A%2F%2Ftracker.openbittorrent.com%3A80&amp;tr=udp%3A%2F%2Fopen.demonii.com%3A1337&amp;tr=udp%3A%2F%2Ftracker.coppersurfer.tk%3A6969&amp;tr=udp%3A%2F%2Fexodus.desync.com%3A6969","seeders":1,"leechers":1,"uploader":"SJonam","files":2,"time":1373494544,"description":" &lt;a href=&quot;http://desibbrg.org/images/16358683858652693851.gif&quot; rel=&quot;nofollow&quot; target=&quot;_NEW&quot;&gt;http://desibbrg.org/images/16358683858652693851.gif&lt;/a&gt; &lt;a href=&quot;\nhttp://desibbrg.org/images/10352998639364629652.png&quot; rel=&quot;nofollow&quot; target=&quot;_NEW&quot;&gt;\nhttp://desibbrg.org/images/10352998639364629652.png&lt;/a&gt; &lt;a href=&quot;\nhttp://desibbrg.org/images/73631815489700937806.png&quot; rel=&quot;nofollow&quot; target=&quot;_NEW&quot;&gt;\nhttp://desibbrg.org/images/73631815489700937806.png&lt;/a&gt; &lt;a href=&quot;\nhttp://desibbrg.org/images/68390740548365986821.png&quot; rel=&quot;nofollow&quot; target=&quot;_NEW&quot;&gt;\nhttp://desibbrg.org/images/68390740548365986821.png&lt;/a&gt; &lt;a href=&quot;\nhttp://desibbrg.org/images/94337954109154000924.png&quot; rel=&quot;nofollow&quot; target=&quot;_NEW&quot;&gt;\nhttp://desibbrg.org/images/94337954109154000924.png&lt;/a&gt; &lt;a href=&quot;\nhttp://desibbrg.org/images/59299534866585455042.png&quot; rel=&quot;nofollow&quot; target=&quot;_NEW&quot;&gt;\nhttp://desibbrg.org/images/59299534866585455042.png&lt;/a&gt;\n\nCast n Crew - \nWriter: Shivraj Gorle\nStarring: Mohan Joshi, Suhasini Deshpande, Anand Abyankar\n\nDirector: Mangesh Kadam\n\nMedia Info - \nGeneral\nComplete name                  : Kuryat Sada Tingalam - Drama x264 MP3 [TMB].avi\nFormat                         : AVI\nFormat/Info                    : Audio Video Interleave\nFile size                      : 598 MiB\nDuration                       : 2h 5mn\nOverall bit rate               : 664 Kbps\nWriting application            : Lavf54.63.104\n\nVideo\nFormat                         : AVC\nFormat/Info                    : Advanced Video Codec\nFormat profile                 : &lt;a class=&quot;__cf_email__&quot; href=&quot;/cdn-cgi/l/email-protection&quot; data-cfemail=&quot;064e6f616e464a352836&quot;&gt;[email&amp;#160;protected]&lt;/a&gt;&lt;script cf-hash='f9e31' type=&quot;text/javascript&quot;&gt;\n/* &lt;![CDATA[ */!function(){try{var t=&quot;currentScript&quot;in document?document.currentScript:function(){for(var t=document.getElementsByTagName(&quot;script&quot;),e=t.length;e--;)if(t[e].getAttribute(&quot;cf-hash&quot;))return t[e]}();if(t&amp;&amp;t.previousSibling){var e,r,n,i,c=t.previousSibling,a=c.getAttribute(&quot;data-cfemail&quot;);if(a){for(e=&quot;&quot;,r=parseInt(a.substr(0,2),16),n=2;a.length-n;n+=2)i=parseInt(a.substr(n,2),16)^r,e+=String.fromCharCode(i);e=document.createTextNode(e),c.parentNode.replaceChild(e,c)}}}catch(u){}}();/* ]]&gt; */&lt;/script&gt;\nFormat settings, CABAC         : Yes\nFormat settings, ReFrames      : 1 frame\nCodec ID                       : H264\nDuration                       : 2h 5mn\nBit rate                       : 394 Kbps\nWidth                          : 632 pixels\nHeight                         : 476 pixels\nDisplay aspect ratio           : 4:3\nFrame rate mode                : Variable\nFrame rate                     : 25.000 fps\nColor space                    : YUV\nChroma subsampling             : 4:2:0\nBit depth                      : 8 bits\nScan type                      : Progressive\nBits/(Pixel*Frame)             : 0.052\nStream size                    : 357 MiB (60%)\nWriting library                : x264 core 129\n\nAudio\nFormat                         : MPEG Audio\nFormat version                 : Version 1\nFormat profile                 : Layer 3\nMode                           : Joint stereo\nMode extension                 : MS Stereo\nCodec ID                       : 55\nCodec ID/Hint                  : MP3\nDuration                       : 2h 5mn\nBit rate mode                  : Constant\nBit rate                       : 256 Kbps\nChannel(s)                     : 2 channels\nSampling rate                  : 44.1 KHz\nCompression mode               : Lossy\nStream size                    : 231 MiB (39%)\nAlignment                      : Aligned on interleaves\nInterleave, duration           : 26 ms (0.65 video frame)\nWriting library                : LAME3.99.5\n\nRipper : Manojvb\n\nSeeding will be very slow for first few hours...\n\n\nEnjoy! ","torrent":{"xt":"urn:btih:d2d55cbe42bf89de3a284bab17f833a1fdd26779","amp;dn":"%5BMARATHI%5D+Kuryat+Sada+Tinglam+-+Drama+x264+MP3+%5BTMB%5D","amp;tr":["udp%3A%2F%2Ftracker.openbittorrent.com%3A80","udp%3A%2F%2Fopen.demonii.com%3A1337","udp%3A%2F%2Ftracker.coppersurfer.tk%3A6969","udp%3A%2F%2Fexodus.desync.com%3A6969"],"infoHash":"d2d55cbe42bf89de3a284bab17f833a1fdd26779","infoHashBuffer":{"type":"Buffer","data":[210,213,92,190,66,191,137,222,58,40,75,171,23,248,51,161,253,210,103,121]},"announce":[],"urlList":[]}}